<?xml version="1.0" encoding="UTF-8" standalone="no"?>
<!DOCTYPE svg PUBLIC "-//W3C//DTD SVG 1.1//EN" "http://www.w3.org/Graphics/SVG/1.1/DTD/svg11.dtd">
<svg width="100%" height="100%" viewBox="0 0 134 74" version="1.1" xmlns="http://www.w3.org/2000/svg" xmlns:xlink="http://www.w3.org/1999/xlink" xml:space="preserve" xmlns:serif="http://www.serif.com/" style="fill-rule:evenodd;clip-rule:evenodd;stroke-linejoin:round;stroke-miterlimit:2;">
    <g transform="matrix(1,0,0,1,-1527.86,-34.7365)">
        <g transform="matrix(1,0,0,1,1440,0)">
            <g>
                <g transform="matrix(1,0,0,-1,-15.8447,100.442)">
                    <path d="M169.743,46.22L169.743,48.153C169.432,48.079 169.059,47.695 168.851,47.431C168.685,47.216 168.602,47.109 168.499,47.109C168.392,47.109 168.309,47.216 168.143,47.431C167.936,47.695 167.636,48.079 167.325,48.153L167.325,46.288C167.574,46.279 168.638,46.166 169.743,46.22" style="fill:rgb(190,159,86);fill-rule:nonzero;"/>
                </g>
                <g transform="matrix(1,0,0,-1,-10.3667,100.18)">
                    <path d="M160.791,46.065L160.791,47.93C160.512,47.853 160.104,47.472 159.929,47.21C159.783,46.993 159.709,46.886 159.606,46.886C159.514,46.886 159.472,47.058 159.295,47.284C159.09,47.546 158.777,47.844 158.487,47.927L158.577,46.246C158.663,46.24 159.626,46.077 160.791,46.065" style="fill:rgb(190,159,86);fill-rule:nonzero;"/>
                </g>
                <g transform="matrix(1,0,0,-1,-21.8257,100.443)">
                    <path d="M179.393,46.289L179.393,48.154C179.082,48.08 178.783,47.696 178.575,47.431C178.409,47.217 178.327,47.11 178.22,47.11C178.116,47.11 178.033,47.217 177.867,47.431C177.66,47.696 177.286,48.08 176.975,48.154L176.975,46.221C178.081,46.167 179.144,46.28 179.393,46.289" style="fill:rgb(190,159,86);fill-rule:nonzero;"/>
                </g>
                <g transform="matrix(1,0,0,-1,-27.4902,100.179)">
                    <path d="M188.418,47.926C188.128,47.843 187.815,47.545 187.611,47.283C187.433,47.057 187.391,46.885 187.299,46.885C187.196,46.885 187.122,46.992 186.976,47.209C186.802,47.471 186.393,47.852 186.114,47.929L186.114,46.064C187.279,46.076 188.242,46.239 188.328,46.245L188.418,47.926Z" style="fill:rgb(190,159,86);fill-rule:nonzero;"/>
                </g>
                <g transform="matrix(1,0,0,-1,-32.9263,206.447)">
                    <path d="M195.581,125.174C194.628,124.424 194.683,122.157 195.565,122.199C196.503,122.243 196.087,123.974 195.949,124.441C195.844,124.808 195.824,125.359 195.581,125.174" style="fill:rgb(190,159,86);fill-rule:nonzero;"/>
                </g>
                <g transform="matrix(1,0,0,-1,-5.40283,208.039)">
                    <path d="M150.995,126.323C150.747,126.5 150.744,125.948 150.651,125.579C150.527,125.108 150.165,123.364 151.104,123.349C151.987,123.335 151.971,125.602 150.995,126.323" style="fill:rgb(190,159,86);fill-rule:nonzero;"/>
                </g>
                <g transform="matrix(1,0,0,-1,-13.0474,138.013)">
                    <path d="M162.812,70.295C162.874,70.28 162.931,70.263 162.987,70.239C163.174,70.161 163.36,70.01 163.464,69.897C163.466,69.894 163.468,69.892 163.469,69.89L166.657,72.981L162.818,76.704C162.817,75.487 162.815,71.219 162.812,70.295" style="fill:rgb(190,159,86);fill-rule:nonzero;"/>
                </g>
                <g transform="matrix(1,0,0,-1,-15.1436,153.57)">
                    <path d="M172.492,82.703C172.311,83.072 172.314,83.503 172.495,83.884C172.551,84.003 172.64,84.131 172.782,84.345L172.901,84.516L169.609,87.708L166.398,84.594L166.57,84.345C166.713,84.131 166.802,84.003 166.858,83.884C167.039,83.503 167.039,83.072 166.861,82.703C166.722,82.408 166.479,82.183 166.194,82.069C166.914,81.977 167.62,81.909 168.455,81.867L168.455,84.244C168.455,85.204 169.264,85.564 169.676,85.573C170.088,85.564 170.895,85.204 170.895,84.244L170.895,81.867C171.733,81.909 172.439,81.977 173.159,82.069C172.874,82.183 172.631,82.408 172.492,82.703" style="fill:rgb(190,159,86);fill-rule:nonzero;"/>
                </g>
                <g transform="matrix(1,0,0,-1,-22.1064,137.733)">
                    <path d="M180.684,69.544C180.701,69.562 180.717,69.578 180.729,69.59C180.738,69.599 180.744,69.606 180.756,69.617C180.86,69.73 181.046,69.882 181.233,69.96C181.29,69.983 181.346,70.001 181.405,70.016C181.405,70.976 181.405,75.556 181.403,76.557L177.428,72.702L180.684,69.544Z" style="fill:rgb(190,159,86);fill-rule:nonzero;"/>
                </g>
                <g transform="matrix(1,0,0,-1,-10.583,117.514)">
                    <path d="M158.934,60.571C159.634,60.63 160.006,60.417 160.372,59.882C160.482,59.861 160.605,59.809 160.644,59.788C161.186,59.458 161.399,58.744 161.127,58.158C161.044,57.974 160.875,57.802 160.768,57.694C160.729,57.657 160.683,57.617 160.644,57.584L165.048,53.313L169.507,57.638C169.486,57.656 169.465,57.676 169.446,57.694C169.339,57.802 169.17,57.974 169.087,58.158C168.814,58.744 169.028,59.458 169.57,59.788C169.608,59.809 169.731,59.861 169.842,59.882C170.208,60.417 170.544,60.66 171.274,60.571L171.386,62.508C169.421,62.291 167.152,62.196 165.116,62.199C163.08,62.196 160.801,62.291 158.836,62.508L158.934,60.571ZM166.2,59.517C166.2,59.791 166.419,60.409 167.021,60.409C167.51,60.409 167.874,60.023 167.874,59.517L167.874,57.691L166.2,57.691L166.2,59.517ZM162.397,59.517C162.397,60.023 162.761,60.409 163.25,60.409C163.851,60.409 164.071,59.791 164.071,59.517L164.071,57.691L162.397,57.691L162.397,59.517Z" style="fill:rgb(190,159,86);fill-rule:nonzero;"/>
                </g>
                <g transform="matrix(1,0,0,-1,6.64844,87.2944)">
                    <path d="M161.166,40.724C158.521,43.744 155.399,45.697 154.608,48.594C154.102,50.461 154.774,50.97 155.109,51.104C155.464,51.248 155.967,51.082 156.297,50.83C156.119,50.65 156.053,50.341 156.032,50.19C155.992,49.915 155.993,49.608 156.038,49.278C156.143,48.583 156.354,48.012 156.673,47.585C156.801,47.411 157.025,47.206 157.253,47.198C157.33,47.195 157.401,47.215 157.46,47.259C157.693,47.413 157.791,47.782 157.807,48.078C157.822,48.357 157.79,48.665 157.707,48.994C157.621,49.325 157.511,49.606 157.369,49.854C157.421,50.217 157.274,50.584 156.996,50.796C156.96,50.823 156.92,50.846 156.88,50.867C156.419,52.023 155.262,52.793 154.074,52.493C153.649,52.385 153.124,52.042 152.746,51.451C152.626,51.323 152.452,51.206 152.242,51.42C151.656,52.033 150.398,52.557 148.824,51.938C146.367,50.971 145.782,47.964 146.408,46.14C146.058,46.475 145.64,46.668 145.305,46.805C143.947,47.357 142.798,47.382 141.653,47.32C138.348,47.144 135.983,44.706 134.784,43.267C129.346,40.148 131.388,29.766 131.511,29.132C132.299,25.084 133.65,20.294 136.387,14.78C138.08,11.363 138.751,9.798 140.086,6.8C140.993,4.764 141.076,3.043 140.693,2.277C140.522,1.935 140.045,2.237 140.048,2.035C140.058,1.593 140.514,0.796 140.932,0.59C141.283,0.374 142.348,-0.121 143.706,0.715C143.99,0.363 144.547,-0.235 145.562,-0.235C146.351,-0.235 147.669,0.374 147.944,1.784C148.342,0.743 149.28,0.36 149.975,0.332C151.026,0.291 151.472,0.771 151.646,1.044C152.156,0.742 152.802,0.625 153.837,0.639C153.908,0.64 153.967,0.648 154.017,0.659C155.15,0.593 155.273,2.422 155.059,2.675C155.027,2.714 154.847,2.17 154.515,2.178C154.057,2.188 154.033,3.393 154.19,4.189C154.626,6.383 156.627,10.018 158.465,13.45C161.066,18.307 163.989,24.32 164.314,29.356C164.6,33.792 164.004,37.484 161.166,40.724M144.676,45.656C147.743,44.263 147.57,41.037 147.072,39.942C146.629,38.974 145.646,38.474 144.597,38.376C145.203,38.937 145.833,40.255 145.429,42.124C144.648,45.741 139.662,46.514 135.842,43.89C135.747,43.824 135.67,43.768 135.611,43.721C137.732,45.44 141.189,47.244 144.676,45.656M147.913,14.334C145.679,14.334 142.957,14.673 141.274,15.043C141.137,15.888 141.059,16.831 140.979,17.801L140.977,17.827C140.845,19.47 140.707,21.169 140.274,22.692C140.17,23.06 140.036,23.486 139.906,23.892L139.901,23.906C139.197,26.145 138.134,29.529 138.732,32.059C139.201,34.041 140.626,35.628 142.641,36.413C144.341,37.076 146.321,37.161 147.855,37.161C149.306,37.161 151.434,37.084 153.152,36.413C155.165,35.628 156.588,34.041 157.057,32.059C157.662,29.516 156.594,26.131 155.886,23.892C155.748,23.459 155.621,23.045 155.518,22.692C155.086,21.185 154.949,19.491 154.817,17.852L154.813,17.799C154.734,16.838 154.656,15.904 154.522,15.066C152.858,14.687 150.199,14.334 147.913,14.334M154.185,13.613C154.072,13.279 153.939,12.976 153.775,12.717C152.512,10.721 150.466,9.623 148.015,9.623L147.78,9.623C145.327,9.623 143.281,10.721 142.018,12.717C141.856,12.972 141.724,13.269 141.613,13.598C143.273,13.245 145.746,12.923 147.892,12.923C150.066,12.923 152.534,13.255 154.185,13.613M142.381,41.308C140.918,43.992 138.271,44.506 136.022,43.804C135.998,43.797 135.976,43.788 135.953,43.781C138.513,45.307 142.927,45.091 143.773,41.848C144.186,40.263 143.774,38.915 142.617,38.323C143.025,39.047 143.05,40.08 142.381,41.308M135.543,43.666C135.516,43.643 135.494,43.623 135.478,43.606C135.473,43.604 135.467,43.602 135.461,43.599C135.488,43.622 135.516,43.644 135.543,43.666M163.055,29.558C162.751,25.953 161.165,21.229 157.836,14.692C154.801,8.731 153.456,6.544 152.89,4.505C152.522,3.163 152.61,2.031 153.001,1.349C152.108,1.676 151.6,2.244 151.361,2.814C150.837,4.058 151.28,6.075 152.536,8.377C152.695,8.668 152.533,8.593 152.334,8.373C151.24,7.162 149.655,4.991 150.24,2.774C150.333,2.418 150.577,1.991 150.961,1.603C150.713,1.315 150.356,1.198 150.04,1.209C148.736,1.251 148.182,2.901 148.381,4.136C148.487,4.802 148.602,5.261 148.898,5.901C149.243,6.642 149.711,7.008 149.119,6.648C148.658,6.374 148.272,6.298 147.879,6.294L147.879,6.303C147.474,6.303 146.979,6.437 146.573,6.66C145.966,6.997 146.105,6.977 146.564,6.178C146.818,5.724 147.097,4.983 147.254,4.038C147.583,2.091 146.739,0.632 145.53,0.632C145.104,0.632 144.607,0.885 144.349,1.218C145.606,2.498 145.236,4.463 144.666,5.766C144.264,6.686 143.351,7.791 142.902,8.011C142.84,8.041 142.774,7.995 142.805,7.934C143.071,7.409 143.607,6.594 143.843,5.754C143.999,5.198 144.697,3.217 143.361,1.754C142.793,1.132 142.209,0.952 141.724,0.95C142.239,1.611 142.691,3.109 141.938,5.713C141.559,7.027 139.793,10.167 137.16,15.86C134.231,22.192 132.983,27.604 132.666,29.814C131.457,38.23 133.885,41.469 136.341,42.234C137.628,42.635 139.785,42.644 140.852,40.772C142.046,38.677 140.125,37.715 139.482,38.167C139.898,38.341 139.827,39.195 139.445,39.864C139.252,40.205 138.52,40.994 138.021,40.719C137.273,40.302 137.928,38.61 138.508,38.058C139.427,37.179 140.587,37.006 141.484,37.354C139.516,36.373 138.134,34.68 137.642,32.616C136.967,29.81 138.1,26.242 138.849,23.88L138.904,23.707C139.025,23.328 139.138,22.97 139.225,22.665C139.635,21.244 139.773,19.594 139.906,17.999L139.911,17.927C140.087,15.741 140.254,13.677 141.115,12.33C142.583,10.037 144.947,8.773 147.771,8.773L148.017,8.773C150.845,8.773 153.209,10.037 154.675,12.331C155.529,13.667 155.7,15.728 155.882,17.91L155.884,17.927C156.006,19.461 156.144,21.199 156.567,22.665C156.645,22.94 156.746,23.258 156.853,23.595L156.943,23.879C157.692,26.241 158.825,29.809 158.153,32.616C157.601,34.923 155.939,36.765 153.593,37.67C152.693,38.022 151.118,38.489 147.854,38.489C147.477,38.489 147.073,38.484 146.654,38.468C147.173,38.689 147.634,39.014 147.938,39.455C148.381,40.1 148.743,40.959 148.542,42.167C149.508,42.127 151.395,41.784 152.971,41.227C153.704,40.969 153.73,41.344 153.086,41.64C151.013,42.59 149.017,44.001 148.179,46.301C147.368,48.524 147.703,50.328 148.864,51.24C149.836,52.004 150.875,51.831 151.557,51.495C150.668,51.454 149.717,50.724 149.428,49.522C148.786,46.855 150.623,44.773 153.279,43.323C153.589,43.154 153.614,43.34 153.479,43.478C151.556,45.444 150.804,47.265 150.844,48.634C150.887,50.102 151.687,50.605 152.415,50.739C152.208,50.088 152.17,49.254 152.454,48.229C153.411,44.785 157.012,43.205 159.847,40.096C162.436,37.258 163.341,32.96 163.055,29.558" style="fill:rgb(190,159,86);fill-rule:nonzero;"/>
                </g>
                <g transform="matrix(1,0,0,-1,-8.61182,120.819)">
                    <path d="M157.994,61.477C158.071,61.477 158.147,61.461 158.219,61.428C158.276,61.472 158.299,61.505 158.35,61.547C158.4,61.588 158.486,61.687 158.519,61.761C158.64,62.02 158.545,62.344 158.311,62.487C158.255,62.521 158.19,62.537 158.125,62.537C158.043,62.537 157.959,62.511 157.887,62.463C157.884,62.475 157.884,62.481 157.881,62.493C157.872,62.6 157.825,62.713 157.771,62.805C157.67,62.973 157.483,63.135 157.253,63.135C157.235,63.135 157.216,63.134 157.197,63.132C157.072,63.117 156.972,63.079 156.877,62.989C156.853,62.966 156.832,62.936 156.815,62.903C156.729,62.966 156.631,63.013 156.53,63.043C156.426,63.073 156.32,63.091 156.213,63.099C156.178,63.101 156.143,63.103 156.109,63.103C156.037,63.103 155.964,63.097 155.884,63.079L155.819,63.067L155.81,62.983C155.789,62.766 155.816,62.549 155.878,62.338C155.884,62.32 155.89,62.305 155.896,62.288C155.839,62.255 155.795,62.207 155.765,62.168C155.697,62.085 155.656,61.972 155.656,61.859C155.65,61.624 155.789,61.44 155.946,61.315C156.011,61.261 156.097,61.223 156.171,61.199C156.088,61.119 156.041,61.003 156.041,60.881C156.041,60.851 156.044,60.824 156.047,60.794C156.077,60.652 156.186,60.512 156.334,60.431C156.426,60.381 156.525,60.357 156.627,60.357C156.719,60.357 156.813,60.377 156.906,60.417C156.98,60.446 157.122,60.535 157.315,60.654C157.214,61.098 157.612,61.477 157.994,61.477" style="fill:rgb(190,159,86);fill-rule:nonzero;"/>
                </g>
                <g transform="matrix(1,0,0,-1,-10.748,159.798)">
                    <path d="M161.825,89.811C161.79,89.883 161.695,90.022 161.57,90.21C161.515,90.195 161.46,90.187 161.406,90.187C160.953,90.187 160.6,90.693 160.761,91.084C160.714,91.141 160.684,91.162 160.637,91.212C160.595,91.263 160.492,91.343 160.418,91.373C160.347,91.402 160.273,91.416 160.199,91.416C159.996,91.416 159.799,91.311 159.704,91.135C159.632,91.004 159.653,90.834 159.745,90.709C159.736,90.706 159.727,90.703 159.715,90.703C159.608,90.686 159.499,90.638 159.41,90.578C159.232,90.462 159.069,90.242 159.108,89.986C159.128,89.865 159.17,89.764 159.265,89.671C159.288,89.65 159.318,89.63 159.351,89.615C159.291,89.523 159.25,89.424 159.226,89.323C159.199,89.216 159.185,89.109 159.182,89.002C159.182,88.895 159.185,88.794 159.215,88.675L159.229,88.606L159.312,88.604C159.34,88.602 159.368,88.601 159.396,88.601C159.586,88.601 159.772,88.636 159.955,88.699C159.97,88.704 159.988,88.713 160.003,88.72C160.038,88.663 160.086,88.621 160.127,88.591C160.21,88.531 160.32,88.496 160.429,88.496L160.441,88.496C160.673,88.502 160.85,88.648 160.969,88.812C161.019,88.877 161.055,88.966 161.076,89.041C161.156,88.966 161.27,88.921 161.384,88.921L161.396,88.922C161.425,88.925 161.455,88.928 161.485,88.937C161.624,88.966 161.76,89.085 161.834,89.237C161.917,89.415 161.917,89.618 161.825,89.811" style="fill:rgb(190,159,86);fill-rule:nonzero;"/>
                </g>
                <g transform="matrix(1,0,0,-1,-28.3496,120.819)">
                    <path d="M190.026,60.794C190.029,60.824 190.032,60.851 190.032,60.881C190.032,61.003 189.982,61.119 189.901,61.199C189.976,61.223 190.062,61.261 190.127,61.315C190.284,61.44 190.423,61.624 190.417,61.859C190.414,61.972 190.376,62.085 190.311,62.168C190.278,62.207 190.234,62.255 190.177,62.288C190.18,62.305 190.192,62.32 190.195,62.338C190.257,62.549 190.284,62.766 190.263,62.983L190.257,63.067L190.192,63.079L190.189,63.079C190.109,63.097 190.035,63.103 189.962,63.103C189.928,63.103 189.894,63.101 189.86,63.099C189.75,63.091 189.647,63.073 189.543,63.043C189.442,63.013 189.344,62.966 189.259,62.903C189.241,62.936 189.22,62.966 189.196,62.989C189.102,63.079 189.001,63.117 188.876,63.132C188.857,63.134 188.838,63.135 188.819,63.135C188.59,63.135 188.4,62.973 188.301,62.805C188.245,62.713 188.2,62.6 188.192,62.493C188.189,62.481 188.189,62.475 188.186,62.463C188.113,62.511 188.029,62.537 187.947,62.537C187.882,62.537 187.818,62.521 187.762,62.487C187.525,62.344 187.433,62.02 187.554,61.761C187.587,61.687 187.673,61.588 187.723,61.547C187.774,61.505 187.797,61.472 187.854,61.428C187.925,61.461 188.002,61.477 188.079,61.477C188.46,61.477 188.856,61.098 188.757,60.654C188.95,60.535 189.092,60.446 189.167,60.417C189.26,60.377 189.354,60.357 189.446,60.357C189.548,60.357 189.647,60.381 189.739,60.431C189.89,60.512 189.997,60.652 190.026,60.794" style="fill:rgb(190,159,86);fill-rule:nonzero;"/>
                </g>
                <g transform="matrix(1,0,0,-1,-26.3384,159.797)">
                    <path d="M186.742,90.577C186.653,90.637 186.544,90.685 186.437,90.702C186.425,90.702 186.416,90.705 186.404,90.708C186.499,90.833 186.517,91.003 186.449,91.134C186.353,91.31 186.156,91.415 185.953,91.415C185.88,91.415 185.805,91.401 185.735,91.372C185.661,91.342 185.557,91.261 185.512,91.211C185.468,91.16 185.438,91.139 185.391,91.083C185.553,90.692 185.197,90.186 184.747,90.186C184.694,90.186 184.64,90.193 184.585,90.209C184.457,90.021 184.362,89.881 184.327,89.81C184.235,89.617 184.232,89.414 184.318,89.236C184.392,89.084 184.525,88.965 184.668,88.935C184.697,88.927 184.727,88.923 184.753,88.92L184.765,88.92C184.882,88.92 184.993,88.965 185.074,89.039C185.098,88.965 185.133,88.876 185.183,88.811C185.299,88.647 185.477,88.501 185.711,88.495L185.724,88.495C185.832,88.495 185.942,88.53 186.025,88.59C186.064,88.62 186.111,88.662 186.15,88.718C186.164,88.712 186.182,88.703 186.197,88.697C186.378,88.635 186.566,88.6 186.755,88.6C186.782,88.6 186.81,88.601 186.837,88.602L186.923,88.605L186.935,88.674L186.938,88.674C186.967,88.793 186.97,88.894 186.97,89.001C186.967,89.108 186.956,89.215 186.929,89.322C186.902,89.423 186.861,89.521 186.802,89.614C186.834,89.628 186.867,89.649 186.888,89.67C186.982,89.762 187.024,89.863 187.045,89.985C187.083,90.241 186.917,90.461 186.742,90.577" style="fill:rgb(190,159,86);fill-rule:nonzero;"/>
                </g>
                <g transform="matrix(1,0,0,-1,70.5337,273.314)">
                    <path d="M28.796,174.616C28.796,175.291 28.363,175.514 27.962,175.514L27.961,175.616L30.941,175.616L30.94,175.514C30.539,175.514 30.107,175.29 30.107,174.616L30.107,166.603C30.107,165.928 30.539,165.705 30.94,165.705L30.941,165.603L27.961,165.603L27.962,165.705C28.363,165.705 28.796,165.929 28.796,166.603L28.796,174.616Z" style="fill:white;fill-rule:nonzero;"/>
                </g>
                <g transform="matrix(1,0,0,-1,49.9565,273.319)">
                    <path d="M63.921,166.08L66.211,166.08C66.871,166.08 67.345,166.516 67.483,167.259L67.59,167.26L67.346,165.607L61.161,165.607L61.162,165.71C61.563,165.71 61.996,165.933 61.996,166.608L61.996,174.62C61.996,175.294 61.563,175.523 61.162,175.523L61.161,175.62L64.164,175.62L64.163,175.523C63.762,175.523 63.33,175.294 63.33,174.62C63.33,174.3 63.333,167.574 63.333,167.255C63.333,166.608 63.367,166.08 63.921,166.08" style="fill:white;fill-rule:nonzero;"/>
                </g>
                <g transform="matrix(1,0,0,-1,-14.2305,273.319)">
                    <path d="M167.481,166.08L169.771,166.08C170.431,166.08 170.905,166.516 171.043,167.259L171.15,167.26L170.906,165.607L164.721,165.607L164.722,165.71C165.123,165.71 165.556,165.933 165.556,166.608L165.556,174.62C165.556,175.294 165.123,175.523 164.722,175.523L164.721,175.62L167.724,175.62L167.723,175.523C167.322,175.523 166.89,175.294 166.89,174.62C166.89,174.3 166.893,167.574 166.893,167.255C166.893,166.608 166.926,166.08 167.481,166.08" style="fill:white;fill-rule:nonzero;"/>
                </g>
                <g transform="matrix(1,0,0,-1,-25.2788,273.319)">
                    <path d="M185.306,166.08L187.596,166.08C188.256,166.08 188.73,166.516 188.868,167.259L188.975,167.26L188.731,165.607L182.546,165.607L182.547,165.71C182.948,165.71 183.381,165.933 183.381,166.608L183.381,174.62C183.381,175.294 182.948,175.523 182.547,175.523L182.546,175.62L185.549,175.62L185.548,175.523C185.147,175.523 184.715,175.294 184.715,174.62C184.715,174.3 184.718,167.574 184.718,167.255C184.718,166.608 184.752,166.08 185.306,166.08" style="fill:white;fill-rule:nonzero;"/>
                </g>
                <g transform="matrix(1,0,0,-1,60.9868,273.315)">
                    <path d="M46.125,166.076L48.414,166.076C49.074,166.076 49.548,166.512 49.686,167.255L49.793,167.256L49.549,165.603L43.364,165.603L43.366,165.706C43.766,165.706 44.199,165.929 44.199,166.604L44.199,174.616C44.199,175.29 43.766,175.515 43.366,175.515L43.364,175.617L46.368,175.617L46.366,175.515C45.965,175.515 45.533,175.29 45.533,174.616C45.533,174.296 45.536,167.57 45.536,167.251C45.536,166.604 45.57,166.076 46.125,166.076" style="fill:white;fill-rule:nonzero;"/>
                </g>
                <g transform="matrix(1,0,0,-1,16.2764,273.319)">
                    <path d="M119.485,175.618L115.501,175.62L115.502,175.523C115.903,175.523 116.336,175.294 116.336,174.62L116.336,166.607C116.336,165.932 115.903,165.704 115.502,165.704L115.501,165.607L119.487,165.606C121.785,165.609 124.004,167.783 124.004,170.61C124.004,173.371 121.848,175.618 119.485,175.618M118.865,166.055L118.398,166.048C117.994,166.048 117.669,166.097 117.669,166.566L117.669,174.68C117.669,175.15 117.994,175.14 118.398,175.14L118.865,175.133C121.364,175.133 122.554,173.11 122.554,170.605C122.554,168.1 121.331,166.055 118.853,166.055" style="fill:white;fill-rule:nonzero;"/>
                </g>
                <g transform="matrix(1,0,0,-1,-1.22949,273.32)">
                    <path d="M150.067,167.26C149.929,166.517 149.441,166.081 148.781,166.081L146.388,166.081C145.834,166.081 145.905,166.596 145.905,167.244C145.905,167.73 145.901,168.808 145.897,170.253C146.435,170.254 147.121,170.254 147.125,170.253C147.583,170.25 148.052,169.722 148.052,169.074L148.15,169.073L148.15,171.906L148.052,171.904C148.052,171.257 147.583,170.73 147.125,170.727C147.121,170.725 146.434,170.726 145.895,170.727C145.892,172.01 145.888,173.485 145.888,174.26C145.888,174.96 145.922,175.147 146.476,175.147L148.178,175.147C148.638,175.147 149.127,174.62 149.169,173.969L149.276,173.968L149.194,175.62L143.745,175.62L143.746,175.524C144.147,175.524 144.58,175.295 144.58,174.62L144.58,166.608C144.58,165.934 144.147,165.712 143.746,165.712L143.745,165.608L149.93,165.608L150.174,167.261L150.067,167.26Z" style="fill:white;fill-rule:nonzero;"/>
                </g>
                <g transform="matrix(1,0,0,-1,-119.34,273.32)">
                    <path d="M340.628,167.26C340.49,166.517 340.002,166.081 339.342,166.081L336.949,166.081C336.395,166.081 336.466,166.596 336.466,167.244C336.466,167.73 336.462,168.808 336.458,170.253C336.996,170.254 337.682,170.254 337.686,170.253C338.144,170.25 338.612,169.722 338.612,169.074L338.711,169.073L338.711,171.906L338.612,171.904C338.612,171.257 338.144,170.73 337.686,170.727C337.682,170.725 336.995,170.726 336.456,170.727C336.453,172.01 336.449,173.485 336.449,174.26C336.449,174.96 336.483,175.147 337.037,175.147L338.739,175.147C339.199,175.147 339.688,174.62 339.73,173.969L339.837,173.968L339.755,175.62L334.306,175.62L334.307,175.524C334.708,175.524 335.141,175.295 335.141,174.62L335.141,166.608C335.141,165.934 334.708,165.712 334.307,165.712L334.306,165.608L340.491,165.608L340.735,167.261L340.628,167.26Z" style="fill:white;fill-rule:nonzero;"/>
                </g>
                <g transform="matrix(1,0,0,-1,-104.104,273.318)">
                    <path d="M314.45,170.404C315.358,170.755 316.419,171.255 316.419,172.94C316.419,174.625 315.232,175.615 313.973,175.619L309.723,175.619L309.723,175.524C310.124,175.524 310.557,175.294 310.557,174.619L310.557,166.606C310.557,165.932 310.125,165.703 309.725,165.703L309.723,165.606L312.737,165.606L312.736,165.703C312.335,165.703 311.903,165.931 311.903,166.606L311.903,170.244L313.007,170.244C314.696,167.434 314.928,165.607 318.694,165.607L318.694,165.703C316.162,165.973 314.823,169.728 314.45,170.404M311.903,170.709L311.903,174.74C311.903,175.169 312.11,175.151 312.511,175.151L313.401,175.15C314.15,175.15 315.113,174.625 315.113,172.94C315.113,171.256 314.103,170.709 313.47,170.709L311.903,170.709Z" style="fill:white;fill-rule:nonzero;"/>
                </g>
                <g transform="matrix(1,0,0,-1,-88.7563,273.318)">
                    <path d="M289.689,170.404C290.597,170.755 291.658,171.255 291.658,172.94C291.658,174.625 290.471,175.615 289.212,175.619L284.962,175.619L284.962,175.524C285.363,175.524 285.796,175.294 285.796,174.619L285.796,166.606C285.796,165.932 285.364,165.703 284.963,165.703L284.962,165.606L287.976,165.606L287.975,165.703C287.574,165.703 287.142,165.931 287.142,166.606L287.142,170.244L288.246,170.244C289.935,167.434 290.167,165.607 293.933,165.607L293.933,165.703C291.401,165.973 290.062,169.728 289.689,170.404M287.142,170.709L287.142,174.74C287.142,175.169 287.348,175.151 287.75,175.151L288.64,175.15C289.389,175.15 290.352,174.625 290.352,172.94C290.352,171.256 289.342,170.709 288.709,170.709L287.142,170.709Z" style="fill:white;fill-rule:nonzero;"/>
                </g>
                <g transform="matrix(1,0,0,-1,-71.3931,272.749)">
                    <path d="M261.231,175.264C258.913,175.264 256.948,172.976 256.948,170.152C256.948,167.329 258.913,165.043 261.231,165.043C263.549,165.043 265.514,167.329 265.514,170.152C265.514,172.975 263.549,175.264 261.231,175.264M261.229,165.534C259.333,165.541 258.48,167.555 258.462,170.155C258.444,172.796 259.419,174.785 261.236,174.785C263.084,174.785 264.04,172.772 264.04,170.173C264.04,167.573 263.149,165.527 261.229,165.534" style="fill:white;fill-rule:nonzero;"/>
                </g>
                <g transform="matrix(1,0,0,-1,39.6362,272.581)">
                    <path d="M82.55,175.162C82.55,175.162 79.903,168.298 78.85,165.891C78.573,165.26 78.191,164.971 77.812,164.972L77.812,164.87L79.769,164.87L79.769,164.971C79.365,164.971 79.187,165.307 79.391,165.812C79.659,166.472 80.048,167.435 80.466,168.49L82.028,167.688L83.612,168.517C83.612,168.517 84.398,166.495 84.658,165.809C84.837,165.335 84.699,165.004 84.227,164.965L84.227,164.868L87.234,164.87L87.234,164.972C86.855,164.971 86.474,165.217 86.272,165.714C85.296,168.118 82.602,175.162 82.602,175.162L82.55,175.162ZM82.028,168.241C82.028,168.241 81.074,168.739 80.651,168.957C81.372,170.808 82.059,172.541 82.059,172.541L83.435,168.975C83.01,168.754 82.028,168.241 82.028,168.241" style="fill:white;fill-rule:nonzero;"/>
                </g>
                <g transform="matrix(1,0,0,-1,87.8643,273.599)">
                    <path d="M2.576,174.96C2.396,175.434 2.534,175.764 3.007,175.804L3.007,175.9L0,175.899L0,175.797C0.379,175.797 0.76,175.551 0.961,175.055C1.937,172.65 4.683,165.606 4.683,165.606L4.735,165.606C4.735,165.606 7.33,172.47 8.384,174.877C8.66,175.508 9.043,175.797 9.422,175.797L9.422,175.899L7.464,175.899L7.464,175.797C7.869,175.797 8.047,175.461 7.842,174.956C7.575,174.296 5.226,168.227 5.226,168.227C5.226,168.227 2.835,174.274 2.576,174.96" style="fill:white;fill-rule:nonzero;"/>
                </g>
                <g transform="matrix(1,0,0,-1,-35.6104,272.581)">
                    <path d="M203.953,175.162C203.953,175.162 201.306,168.298 200.253,165.891C199.976,165.26 199.594,164.971 199.215,164.972L199.215,164.87L201.172,164.87L201.172,164.971C200.768,164.971 200.59,165.307 200.794,165.812C201.062,166.472 201.451,167.435 201.869,168.49L203.431,167.688L205.015,168.517C205.015,168.517 205.801,166.495 206.061,165.809C206.24,165.335 206.102,165.004 205.63,164.965L205.63,164.868L208.637,164.87L208.637,164.972C208.258,164.971 207.877,165.217 207.675,165.714C206.699,168.118 204.005,175.162 204.005,175.162L203.953,175.162ZM203.431,168.241C203.431,168.241 202.477,168.739 202.054,168.957C202.775,170.808 203.462,172.541 203.462,172.541L204.838,168.975C204.413,168.754 203.431,168.241 203.431,168.241" style="fill:white;fill-rule:nonzero;"/>
                </g>
                <g transform="matrix(1,0,0,-1,-57.1997,273.317)">
                    <path d="M234.292,175.618L234.048,173.966L234.155,173.967C234.29,174.718 234.814,175.145 235.358,175.145L237.019,175.145C237.574,175.145 237.608,174.618 237.608,173.971C237.608,173.651 237.611,166.926 237.611,166.606C237.611,165.932 237.178,165.709 236.777,165.709L236.776,165.606L239.79,165.606L239.79,165.709C239.388,165.709 238.956,165.931 238.956,166.606C238.956,166.85 238.951,171.777 238.951,173.971C238.951,174.618 238.985,175.145 239.539,175.145L241.209,175.145C241.725,175.145 242.262,174.728 242.404,173.967L242.512,173.966L242.267,175.618L234.292,175.618Z" style="fill:white;fill-rule:nonzero;"/>
                </g>
            </g>
        </g>
    </g>
</svg>
